<mxfile host="Electron" agent="Mozilla/5.0 (Macintosh; Intel Mac OS X 10_15_7) AppleWebKit/537.36 (KHTML, like Gecko) draw.io/25.0.2 Chrome/128.0.6613.186 Electron/32.2.5 Safari/537.36" version="25.0.2">
  <diagram name="第 1 页" id="h0PRpNNmoAaoN-pZgCK5">
    <mxGraphModel dx="1738" dy="682" grid="1" gridSize="10" guides="1" tooltips="1" connect="1" arrows="1" fold="1" page="1" pageScale="1" pageWidth="827" pageHeight="1169" math="0" shadow="0">
      <root>
        <mxCell id="0" />
        <mxCell id="1" parent="0" />
        <mxCell id="0xQNeweGMBsmHiFc38am-51" style="edgeStyle=orthogonalEdgeStyle;rounded=0;orthogonalLoop=1;jettySize=auto;html=1;entryX=0.5;entryY=0;entryDx=0;entryDy=0;" edge="1" parent="1" source="0xQNeweGMBsmHiFc38am-1" target="0xQNeweGMBsmHiFc38am-2">
          <mxGeometry relative="1" as="geometry" />
        </mxCell>
        <mxCell id="0xQNeweGMBsmHiFc38am-1" value="" style="ellipse;fillColor=strokeColor;html=1;" vertex="1" parent="1">
          <mxGeometry x="360" y="110" width="20" height="20" as="geometry" />
        </mxCell>
        <mxCell id="0xQNeweGMBsmHiFc38am-2" value="Created" style="rounded=1;whiteSpace=wrap;html=1;" vertex="1" parent="1">
          <mxGeometry x="325" y="150" width="90" height="30" as="geometry" />
        </mxCell>
        <mxCell id="0xQNeweGMBsmHiFc38am-9" style="edgeStyle=orthogonalEdgeStyle;rounded=0;orthogonalLoop=1;jettySize=auto;html=1;exitX=0.5;exitY=1;exitDx=0;exitDy=0;entryX=0.5;entryY=0;entryDx=0;entryDy=0;" edge="1" parent="1" source="0xQNeweGMBsmHiFc38am-3" target="0xQNeweGMBsmHiFc38am-8">
          <mxGeometry relative="1" as="geometry" />
        </mxCell>
        <mxCell id="0xQNeweGMBsmHiFc38am-10" value="StartProcess[staffAvailable]/assignPacker" style="edgeLabel;html=1;align=center;verticalAlign=middle;resizable=0;points=[];" vertex="1" connectable="0" parent="0xQNeweGMBsmHiFc38am-9">
          <mxGeometry x="-0.1" y="2" relative="1" as="geometry">
            <mxPoint as="offset" />
          </mxGeometry>
        </mxCell>
        <mxCell id="0xQNeweGMBsmHiFc38am-3" value="Pending" style="rounded=1;whiteSpace=wrap;html=1;" vertex="1" parent="1">
          <mxGeometry x="190" y="240" width="90" height="30" as="geometry" />
        </mxCell>
        <mxCell id="0xQNeweGMBsmHiFc38am-12" style="edgeStyle=orthogonalEdgeStyle;rounded=0;orthogonalLoop=1;jettySize=auto;html=1;entryX=0.5;entryY=0;entryDx=0;entryDy=0;" edge="1" parent="1" source="0xQNeweGMBsmHiFc38am-8" target="0xQNeweGMBsmHiFc38am-11">
          <mxGeometry relative="1" as="geometry" />
        </mxCell>
        <mxCell id="0xQNeweGMBsmHiFc38am-13" value="PackingComplete/updateInventory" style="edgeLabel;html=1;align=center;verticalAlign=middle;resizable=0;points=[];" vertex="1" connectable="0" parent="0xQNeweGMBsmHiFc38am-12">
          <mxGeometry x="-0.6" y="2" relative="1" as="geometry">
            <mxPoint x="-2" y="12" as="offset" />
          </mxGeometry>
        </mxCell>
        <mxCell id="0xQNeweGMBsmHiFc38am-8" value="Packing" style="rounded=1;whiteSpace=wrap;html=1;" vertex="1" parent="1">
          <mxGeometry x="190" y="310" width="90" height="30" as="geometry" />
        </mxCell>
        <mxCell id="0xQNeweGMBsmHiFc38am-15" style="edgeStyle=orthogonalEdgeStyle;rounded=0;orthogonalLoop=1;jettySize=auto;html=1;entryX=0.5;entryY=0;entryDx=0;entryDy=0;" edge="1" parent="1" source="0xQNeweGMBsmHiFc38am-11" target="0xQNeweGMBsmHiFc38am-14">
          <mxGeometry relative="1" as="geometry" />
        </mxCell>
        <mxCell id="0xQNeweGMBsmHiFc38am-16" value="courierReceived[waybillCreated]/updateTrackingNumber" style="edgeLabel;html=1;align=center;verticalAlign=middle;resizable=0;points=[];" vertex="1" connectable="0" parent="0xQNeweGMBsmHiFc38am-15">
          <mxGeometry x="-0.24" y="1" relative="1" as="geometry">
            <mxPoint x="-1" y="5" as="offset" />
          </mxGeometry>
        </mxCell>
        <mxCell id="0xQNeweGMBsmHiFc38am-11" value="ReadyToShip" style="rounded=1;whiteSpace=wrap;html=1;" vertex="1" parent="1">
          <mxGeometry x="190" y="380" width="90" height="30" as="geometry" />
        </mxCell>
        <mxCell id="0xQNeweGMBsmHiFc38am-14" value="InTransit" style="rounded=1;whiteSpace=wrap;html=1;" vertex="1" parent="1">
          <mxGeometry x="190" y="450" width="90" height="30" as="geometry" />
        </mxCell>
        <mxCell id="0xQNeweGMBsmHiFc38am-24" style="edgeStyle=orthogonalEdgeStyle;rounded=0;orthogonalLoop=1;jettySize=auto;html=1;entryX=0.5;entryY=0;entryDx=0;entryDy=0;" edge="1" parent="1" source="0xQNeweGMBsmHiFc38am-17" target="0xQNeweGMBsmHiFc38am-18">
          <mxGeometry relative="1" as="geometry">
            <Array as="points">
              <mxPoint x="135" y="530" />
              <mxPoint x="135" y="530" />
            </Array>
          </mxGeometry>
        </mxCell>
        <mxCell id="0xQNeweGMBsmHiFc38am-31" value="deliveryConfirmed/updateStatus" style="edgeLabel;html=1;align=center;verticalAlign=middle;resizable=0;points=[];" vertex="1" connectable="0" parent="0xQNeweGMBsmHiFc38am-24">
          <mxGeometry x="-0.1429" y="1" relative="1" as="geometry">
            <mxPoint x="-16" as="offset" />
          </mxGeometry>
        </mxCell>
        <mxCell id="0xQNeweGMBsmHiFc38am-26" style="edgeStyle=orthogonalEdgeStyle;rounded=0;orthogonalLoop=1;jettySize=auto;html=1;entryX=0.5;entryY=0;entryDx=0;entryDy=0;" edge="1" parent="1" source="0xQNeweGMBsmHiFc38am-17" target="0xQNeweGMBsmHiFc38am-19">
          <mxGeometry relative="1" as="geometry">
            <Array as="points">
              <mxPoint x="335" y="530" />
              <mxPoint x="335" y="530" />
            </Array>
          </mxGeometry>
        </mxCell>
        <mxCell id="0xQNeweGMBsmHiFc38am-32" value="noRecipient/recordFailureReason" style="edgeLabel;html=1;align=center;verticalAlign=middle;resizable=0;points=[];" vertex="1" connectable="0" parent="0xQNeweGMBsmHiFc38am-26">
          <mxGeometry x="-0.1429" relative="1" as="geometry">
            <mxPoint y="1" as="offset" />
          </mxGeometry>
        </mxCell>
        <mxCell id="0xQNeweGMBsmHiFc38am-17" value="" style="html=1;points=[];perimeter=orthogonalPerimeter;fillColor=strokeColor;direction=south;" vertex="1" parent="1">
          <mxGeometry x="115" y="510" width="220" height="5" as="geometry" />
        </mxCell>
        <mxCell id="0xQNeweGMBsmHiFc38am-18" value="Delivered" style="rounded=1;whiteSpace=wrap;html=1;" vertex="1" parent="1">
          <mxGeometry x="90" y="560" width="90" height="20" as="geometry" />
        </mxCell>
        <mxCell id="0xQNeweGMBsmHiFc38am-30" style="edgeStyle=orthogonalEdgeStyle;rounded=0;orthogonalLoop=1;jettySize=auto;html=1;exitX=1;exitY=0.5;exitDx=0;exitDy=0;entryX=1;entryY=0.5;entryDx=0;entryDy=0;" edge="1" parent="1" source="0xQNeweGMBsmHiFc38am-19" target="0xQNeweGMBsmHiFc38am-14">
          <mxGeometry relative="1" as="geometry">
            <Array as="points">
              <mxPoint x="435" y="605" />
              <mxPoint x="435" y="465" />
            </Array>
          </mxGeometry>
        </mxCell>
        <mxCell id="0xQNeweGMBsmHiFc38am-33" value="reAttemptDelivery[customerAvailable]/updateDeliveryTime" style="edgeLabel;html=1;align=center;verticalAlign=middle;resizable=0;points=[];" vertex="1" connectable="0" parent="0xQNeweGMBsmHiFc38am-30">
          <mxGeometry x="-0.0027" y="1" relative="1" as="geometry">
            <mxPoint x="1" y="5" as="offset" />
          </mxGeometry>
        </mxCell>
        <mxCell id="0xQNeweGMBsmHiFc38am-40" style="edgeStyle=orthogonalEdgeStyle;rounded=0;orthogonalLoop=1;jettySize=auto;html=1;entryX=1;entryY=0.5;entryDx=0;entryDy=0;" edge="1" parent="1" source="0xQNeweGMBsmHiFc38am-19" target="0xQNeweGMBsmHiFc38am-35">
          <mxGeometry relative="1" as="geometry">
            <Array as="points">
              <mxPoint x="335" y="665" />
            </Array>
          </mxGeometry>
        </mxCell>
        <mxCell id="0xQNeweGMBsmHiFc38am-41" value="MaxRetriesExceeded/initiateReturn" style="edgeLabel;html=1;align=center;verticalAlign=middle;resizable=0;points=[];" vertex="1" connectable="0" parent="0xQNeweGMBsmHiFc38am-40">
          <mxGeometry x="-0.71" relative="1" as="geometry">
            <mxPoint x="25" y="-9" as="offset" />
          </mxGeometry>
        </mxCell>
        <mxCell id="0xQNeweGMBsmHiFc38am-19" value="DeliveryFailed" style="rounded=1;whiteSpace=wrap;html=1;" vertex="1" parent="1">
          <mxGeometry x="290" y="590" width="90" height="30" as="geometry" />
        </mxCell>
        <mxCell id="0xQNeweGMBsmHiFc38am-23" style="edgeStyle=orthogonalEdgeStyle;rounded=0;orthogonalLoop=1;jettySize=auto;html=1;" edge="1" parent="1" source="0xQNeweGMBsmHiFc38am-14">
          <mxGeometry relative="1" as="geometry">
            <mxPoint x="235" y="508" as="targetPoint" />
          </mxGeometry>
        </mxCell>
        <mxCell id="0xQNeweGMBsmHiFc38am-27" value="" style="ellipse;html=1;shape=endState;fillColor=strokeColor;" vertex="1" parent="1">
          <mxGeometry x="355" y="740" width="30" height="30" as="geometry" />
        </mxCell>
        <mxCell id="0xQNeweGMBsmHiFc38am-34" value="Package Status" style="shape=umlFrame;whiteSpace=wrap;html=1;pointerEvents=0;" vertex="1" parent="1">
          <mxGeometry x="-30" y="100" width="780" height="680" as="geometry" />
        </mxCell>
        <mxCell id="0xQNeweGMBsmHiFc38am-35" value="Returned" style="rounded=1;whiteSpace=wrap;html=1;" vertex="1" parent="1">
          <mxGeometry x="90" y="650" width="90" height="30" as="geometry" />
        </mxCell>
        <mxCell id="0xQNeweGMBsmHiFc38am-42" value="Cancelled" style="rounded=1;whiteSpace=wrap;html=1;" vertex="1" parent="1">
          <mxGeometry x="550" y="320" width="90" height="30" as="geometry" />
        </mxCell>
        <mxCell id="0xQNeweGMBsmHiFc38am-49" style="edgeStyle=orthogonalEdgeStyle;rounded=0;orthogonalLoop=1;jettySize=auto;html=1;entryX=0.5;entryY=0;entryDx=0;entryDy=0;" edge="1" parent="1" source="0xQNeweGMBsmHiFc38am-48" target="0xQNeweGMBsmHiFc38am-3">
          <mxGeometry relative="1" as="geometry">
            <Array as="points">
              <mxPoint x="235" y="210" />
              <mxPoint x="235" y="210" />
            </Array>
          </mxGeometry>
        </mxCell>
        <mxCell id="0xQNeweGMBsmHiFc38am-52" value="&lt;span style=&quot;font-size: 12px; background-color: rgb(251, 251, 251);&quot;&gt;orderConfirmed[stockAvailable]/createPackage&lt;/span&gt;" style="edgeLabel;html=1;align=center;verticalAlign=middle;resizable=0;points=[];" vertex="1" connectable="0" parent="0xQNeweGMBsmHiFc38am-49">
          <mxGeometry x="-0.44" relative="1" as="geometry">
            <mxPoint y="5" as="offset" />
          </mxGeometry>
        </mxCell>
        <mxCell id="0xQNeweGMBsmHiFc38am-53" style="edgeStyle=orthogonalEdgeStyle;rounded=0;orthogonalLoop=1;jettySize=auto;html=1;entryX=0.5;entryY=0;entryDx=0;entryDy=0;" edge="1" parent="1" source="0xQNeweGMBsmHiFc38am-48" target="0xQNeweGMBsmHiFc38am-42">
          <mxGeometry relative="1" as="geometry">
            <Array as="points">
              <mxPoint x="595" y="250" />
              <mxPoint x="595" y="250" />
            </Array>
          </mxGeometry>
        </mxCell>
        <mxCell id="0xQNeweGMBsmHiFc38am-54" value="cancelOrder/returnPayment" style="edgeLabel;html=1;align=center;verticalAlign=middle;resizable=0;points=[];" vertex="1" connectable="0" parent="0xQNeweGMBsmHiFc38am-53">
          <mxGeometry x="-0.2889" y="3" relative="1" as="geometry">
            <mxPoint x="2" y="14" as="offset" />
          </mxGeometry>
        </mxCell>
        <mxCell id="0xQNeweGMBsmHiFc38am-48" value="" style="html=1;points=[];perimeter=orthogonalPerimeter;fillColor=strokeColor;direction=south;" vertex="1" parent="1">
          <mxGeometry x="210" y="200" width="430" height="5" as="geometry" />
        </mxCell>
        <mxCell id="0xQNeweGMBsmHiFc38am-58" style="edgeStyle=orthogonalEdgeStyle;rounded=0;orthogonalLoop=1;jettySize=auto;html=1;entryX=0.5;entryY=0;entryDx=0;entryDy=0;" edge="1" parent="1" source="0xQNeweGMBsmHiFc38am-56" target="0xQNeweGMBsmHiFc38am-35">
          <mxGeometry relative="1" as="geometry">
            <Array as="points">
              <mxPoint x="135" y="610" />
              <mxPoint x="135" y="610" />
            </Array>
          </mxGeometry>
        </mxCell>
        <mxCell id="0xQNeweGMBsmHiFc38am-59" value="returnRequested[withinReturnPeriod]/createReturnLabel" style="edgeLabel;html=1;align=center;verticalAlign=middle;resizable=0;points=[];" vertex="1" connectable="0" parent="0xQNeweGMBsmHiFc38am-58">
          <mxGeometry x="-0.2" y="1" relative="1" as="geometry">
            <mxPoint as="offset" />
          </mxGeometry>
        </mxCell>
        <mxCell id="0xQNeweGMBsmHiFc38am-56" value="" style="html=1;points=[];perimeter=orthogonalPerimeter;fillColor=strokeColor;direction=south;" vertex="1" parent="1">
          <mxGeometry x="-20" y="600" width="240" height="5" as="geometry" />
        </mxCell>
        <mxCell id="0xQNeweGMBsmHiFc38am-65" style="edgeStyle=orthogonalEdgeStyle;rounded=0;orthogonalLoop=1;jettySize=auto;html=1;entryX=0.5;entryY=0;entryDx=0;entryDy=0;" edge="1" parent="1" source="0xQNeweGMBsmHiFc38am-62" target="0xQNeweGMBsmHiFc38am-27">
          <mxGeometry relative="1" as="geometry">
            <Array as="points">
              <mxPoint x="370" y="740" />
              <mxPoint x="370" y="740" />
            </Array>
          </mxGeometry>
        </mxCell>
        <mxCell id="0xQNeweGMBsmHiFc38am-62" value="" style="html=1;points=[];perimeter=orthogonalPerimeter;fillColor=strokeColor;direction=south;" vertex="1" parent="1">
          <mxGeometry x="-20" y="712.5" width="710" height="5" as="geometry" />
        </mxCell>
        <mxCell id="0xQNeweGMBsmHiFc38am-70" style="edgeStyle=orthogonalEdgeStyle;rounded=0;orthogonalLoop=1;jettySize=auto;html=1;entryX=0;entryY=0.628;entryDx=0;entryDy=0;entryPerimeter=0;" edge="1" parent="1" source="0xQNeweGMBsmHiFc38am-2" target="0xQNeweGMBsmHiFc38am-48">
          <mxGeometry relative="1" as="geometry" />
        </mxCell>
        <mxCell id="0xQNeweGMBsmHiFc38am-72" style="edgeStyle=orthogonalEdgeStyle;rounded=0;orthogonalLoop=1;jettySize=auto;html=1;entryX=-0.5;entryY=0.134;entryDx=0;entryDy=0;entryPerimeter=0;" edge="1" parent="1" source="0xQNeweGMBsmHiFc38am-42" target="0xQNeweGMBsmHiFc38am-62">
          <mxGeometry relative="1" as="geometry" />
        </mxCell>
        <mxCell id="0xQNeweGMBsmHiFc38am-73" style="edgeStyle=orthogonalEdgeStyle;rounded=0;orthogonalLoop=1;jettySize=auto;html=1;entryX=-0.3;entryY=0.783;entryDx=0;entryDy=0;entryPerimeter=0;" edge="1" parent="1" source="0xQNeweGMBsmHiFc38am-35" target="0xQNeweGMBsmHiFc38am-62">
          <mxGeometry relative="1" as="geometry" />
        </mxCell>
        <mxCell id="0xQNeweGMBsmHiFc38am-74" style="edgeStyle=orthogonalEdgeStyle;rounded=0;orthogonalLoop=1;jettySize=auto;html=1;entryX=-0.3;entryY=0.99;entryDx=0;entryDy=0;entryPerimeter=0;" edge="1" parent="1" source="0xQNeweGMBsmHiFc38am-56" target="0xQNeweGMBsmHiFc38am-62">
          <mxGeometry relative="1" as="geometry">
            <Array as="points">
              <mxPoint x="-13" y="630" />
              <mxPoint x="-13" y="630" />
            </Array>
          </mxGeometry>
        </mxCell>
        <mxCell id="0xQNeweGMBsmHiFc38am-78" style="edgeStyle=orthogonalEdgeStyle;rounded=0;orthogonalLoop=1;jettySize=auto;html=1;entryX=0;entryY=0.354;entryDx=0;entryDy=0;entryPerimeter=0;" edge="1" parent="1" source="0xQNeweGMBsmHiFc38am-18" target="0xQNeweGMBsmHiFc38am-56">
          <mxGeometry relative="1" as="geometry" />
        </mxCell>
      </root>
    </mxGraphModel>
  </diagram>
</mxfile>
